{
  "accessors": [
    {
      "bufferView": 2,
      "componentType": 5126,
      "count": 37985,
      "max": [
        -2.7200610637664795,
        4.602074146270752,
        -0.4257279932498932
      ],
      "min": [
        -3.838413953781128,
        3.1887080669403076,
        -1.969944953918457
      ],
      "type": "VEC3"
    },
    {
      "bufferView": 2,
      "byteOffset": 455820,
      "componentType": 5126,
      "count": 37985,
      "max": [
        1.0,
        0.9999348521232605,
        1.0
      ],
      "min": [
        -0.9998770952224731,
        -0.9999083280563354,
        -1.0
      ],
      "type": "VEC3"
    },
    {
      "bufferView": 1,
      "componentType": 5126,
      "count": 37985,
      "max": [
        1.3764350414276123,
        1.0
      ],
      "min": [
        -0.5608800053596497,
        -0.08410298824310303
      ],
      "type": "VEC2"
    },
    {
      "bufferView": 0,
      "componentType": 5125,
      "count": 134022,
      "type": "SCALAR"
    },
    {
      "bufferView": 2,
      "byteOffset": 911640,
      "componentType": 5126,
      "count": 8979,
      "max": [
        -2.8344500064849854,
        4.301305770874023,
        -0.43966999650001526
      ],
      "min": [
        -3.5672900676727295,
        3.3923590183258057,
        -1.54966402053833
      ],
      "type": "VEC3"
    },
    {
      "bufferView": 2,
      "byteOffset": 1019388,
      "componentType": 5126,
      "count": 8979,
      "max": [
        0.9998890161514282,
        0.9999943971633911,
        1.0
      ],
      "min": [
        -0.9998890161514282,
        -0.9999942779541016,
        -1.0
      ],
      "type": "VEC3"
    },
    {
      "bufferView": 1,
      "byteOffset": 303880,
      "componentType": 5126,
      "count": 8979,
      "max": [
        1.0,
        1.0
      ],
      "min": [
        0.0,
        0.0
      ],
      "type": "VEC2"
    },
    {
      "bufferView": 0,
      "byteOffset": 536088,
      "componentType": 5125,
      "count": 27528,
      "type": "SCALAR"
    },
    {
      "bufferView": 2,
      "byteOffset": 1127136,
      "componentType": 5126,
      "count": 32179,
      "max": [
        -2.73553204536438,
        4.59572696685791,
        0.003467000089585781
      ],
      "min": [
        -3.77054500579834,
        3.1887080669403076,
        -1.9993200302124023
      ],
      "type": "VEC3"
    },
    {
      "bufferView": 2,
      "byteOffset": 1513284,
      "componentType": 5126,
      "count": 32179,
      "max": [
        1.0,
        0.9999045729637146,
        1.0
      ],
      "min": [
        -0.9999732971191406,
        -0.9998275637626648,
        -1.0
      ],
      "type": "VEC3"
    },
    {
      "bufferView": 1,
      "byteOffset": 375712,
      "componentType": 5126,
      "count": 32179,
      "max": [
        16.41086769104004,
        1.0
      ],
      "min": [
        -11.141212463378906,
        0.0
      ],
      "type": "VEC2"
    },
    {
      "bufferView": 0,
      "byteOffset": 646200,
      "componentType": 5125,
      "count": 114495,
      "type": "SCALAR"
    },
    {
      "bufferView": 2,
      "byteOffset": 1899432,
      "componentType": 5126,
      "count": 329,
      "max": [
        -3.5773329734802246,
        4.38801383972168,
        -0.4257279932498932
      ],
      "min": [
        -3.854919910430908,
        3.7298800945281982,
        -1.8831000328063965
      ],
      "type": "VEC3"
    },
    {
      "bufferView": 2,
      "byteOffset": 1903380,
      "componentType": 5126,
      "count": 329,
      "max": [
        0.9662482142448425,
        0.9662548303604126,
        1.0
      ],
      "min": [
        -0.9662482142448425,
        -0.9736627340316772,
        -1.0
      ],
      "type": "VEC3"
    },
    {
      "bufferView": 1,
      "byteOffset": 633144,
      "componentType": 5126,
      "count": 329,
      "max": [
        0.735509991645813,
        0.9374229907989502
      ],
      "min": [
        0.3681899905204773,
        0.09701800346374512
      ],
      "type": "VEC2"
    },
    {
      "bufferView": 0,
      "byteOffset": 1104180,
      "componentType": 5125,
      "count": 687,
      "type": "SCALAR"
    },
    {
      "bufferView": 2,
      "byteOffset": 1907328,
      "componentType": 5126,
      "count": 125,
      "max": [
        -2.9708359241485596,
        4.574577808380127,
        -0.4257279932498932
      ],
      "min": [
        -3.449660062789917,
        3.6045689582824707,
        -1.8831000328063965
      ],
      "type": "VEC3"
    },
    {
      "bufferView": 2,
      "byteOffset": 1908828,
      "componentType": 5126,
      "count": 125,
      "max": [
        0.9451282024383545,
        0.9990138411521912,
        0.9510576128959656
      ],
      "min": [
        -0.9662548303604126,
        -0.25761285424232483,
        -0.9945224523544312
      ],
      "type": "VEC3"
    },
    {
      "bufferView": 1,
      "byteOffset": 635776,
      "componentType": 5126,
      "count": 125,
      "max": [
        1.0590150356292725,
        1.0
      ],
      "min": [
        0.0,
        0.09701800346374512
      ],
      "type": "VEC2"
    },
    {
      "bufferView": 0,
      "byteOffset": 1106928,
      "componentType": 5125,
      "count": 279,
      "type": "SCALAR"
    },
    {
      "bufferView": 2,
      "byteOffset": 1910328,
      "componentType": 5126,
      "count": 320,
      "max": [
        -2.877577066421509,
        4.574577808380127,
        -0.4257279932498932
      ],
      "min": [
        -3.1551640033721924,
        3.916443109512329,
        -1.8831000328063965
      ],
      "type": "VEC3"
    },
    {
      "bufferView": 2,
      "byteOffset": 1914168,
      "componentType": 5126,
      "count": 320,
      "max": [
        0.9662548303604126,
        0.9662548303604126,
        1.0
      ],
      "min": [
        -0.9662482142448425,
        -0.9662548303604126,
        -1.0
      ],
      "type": "VEC3"
    },
    {
      "bufferView": 1,
      "byteOffset": 636776,
      "componentType": 5126,
      "count": 320,
      "max": [
        0.735509991645813,
        0.9374229907989502
      ],
      "min": [
        0.3681899905204773,
        0.09701800346374512
      ],
      "type": "VEC2"
    },
    {
      "bufferView": 0,
      "byteOffset": 1108044,
      "componentType": 5125,
      "count": 702,
      "type": "SCALAR"
    },
    {
      "bufferView": 2,
      "byteOffset": 1918008,
      "componentType": 5126,
      "count": 329,
      "max": [
        -3.5773329734802246,
        4.38801383972168,
        -0.4257279932498932
      ],
      "min": [
        -3.854919910430908,
        3.7298800945281982,
        -1.8831000328063965
      ],
      "type": "VEC3"
    },
    {
      "bufferView": 2,
      "byteOffset": 1921956,
      "componentType": 5126,
      "count": 329,
      "max": [
        0.9662482142448425,
        0.9662548303604126,
        1.0
      ],
      "min": [
        -0.9662482142448425,
        -0.9736627340316772,
        -1.0
      ],
      "type": "VEC3"
    },
    {
      "bufferView": 1,
      "byteOffset": 639336,
      "componentType": 5126,
      "count": 329,
      "max": [
        0.735509991645813,
        0.9374229907989502
      ],
      "min": [
        0.3681899905204773,
        0.09701800346374512
      ],
      "type": "VEC2"
    },
    {
      "bufferView": 0,
      "byteOffset": 1110852,
      "componentType": 5125,
      "count": 687,
      "type": "SCALAR"
    },
    {
      "bufferView": 2,
      "byteOffset": 1925904,
      "componentType": 5126,
      "count": 2251,
      "max": [
        -2.9141759872436523,
        4.301305770874023,
        -0.43966999650001526
      ],
      "min": [
        -3.4566240310668945,
        3.771406888961792,
        -1.7570600509643555
      ],
      "type": "VEC3"
    },
    {
      "bufferView": 2,
      "byteOffset": 1952916,
      "componentType": 5126,
      "count": 2251,
      "max": [
        0.9995971322059631,
        0.9750904440879822,
        1.0
      ],
      "min": [
        -0.9995971322059631,
        -0.9750904440879822,
        -1.0
      ],
      "type": "VEC3"
    },
    {
      "bufferView": 1,
      "byteOffset": 641968,
      "componentType": 5126,
      "count": 2251,
      "max": [
        1.0,
        1.0
      ],
      "min": [
        0.0,
        0.0
      ],
      "type": "VEC2"
    },
    {
      "bufferView": 0,
      "byteOffset": 1113600,
      "componentType": 5125,
      "count": 7302,
      "type": "SCALAR"
    },
    {
      "bufferView": 2,
      "byteOffset": 1979928,
      "componentType": 5126,
      "count": 320,
      "max": [
        -2.877577066421509,
        4.574577808380127,
        -0.4257279932498932
      ],
      "min": [
        -3.1551640033721924,
        3.916443109512329,
        -1.8831000328063965
      ],
      "type": "VEC3"
    },
    {
      "bufferView": 2,
      "byteOffset": 1983768,
      "componentType": 5126,
      "count": 320,
      "max": [
        0.9662548303604126,
        0.9662548303604126,
        1.0
      ],
      "min": [
        -0.9662482142448425,
        -0.9662548303604126,
        -1.0
      ],
      "type": "VEC3"
    },
    {
      "bufferView": 1,
      "byteOffset": 659976,
      "componentType": 5126,
      "count": 320,
      "max": [
        0.735509991645813,
        0.9374229907989502
      ],
      "min": [
        0.3681899905204773,
        0.09701800346374512
      ],
      "type": "VEC2"
    },
    {
      "bufferView": 0,
      "byteOffset": 1142808,
      "componentType": 5125,
      "count": 702,
      "type": "SCALAR"
    },
    {
      "bufferView": 2,
      "byteOffset": 1987608,
      "componentType": 5126,
      "count": 1104,
      "max": [
        -2.970062017440796,
        4.049520969390869,
        -0.5544570088386536
      ],
      "min": [
        -3.5109028816223145,
        3.5223639011383057,
        -1.7392120361328125
      ],
      "type": "VEC3"
    },
    {
      "bufferView": 2,
      "byteOffset": 2000856,
      "componentType": 5126,
      "count": 1104,
      "max": [
        0.9971190690994263,
        0.9571415185928345,
        0.9537755846977234
      ],
      "min": [
        -0.9945748448371887,
        -0.9837928414344788,
        -0.9537755846977234
      ],
      "type": "VEC3"
    },
    {
      "bufferView": 1,
      "byteOffset": 662536,
      "componentType": 5126,
      "count": 1104,
      "max": [
        12.602381706237793,
        1.0
      ],
      "min": [
        -11.17016887664795,
        0.0
      ],
      "type": "VEC2"
    },
    {
      "bufferView": 0,
      "byteOffset": 1145616,
      "componentType": 5125,
      "count": 2496,
      "type": "SCALAR"
    },
    {
      "bufferView": 2,
      "byteOffset": 2014104,
      "componentType": 5126,
      "count": 16889,
      "max": [
        -2.821247100830078,
        4.0820488929748535,
        -0.6474800109863281
      ],
      "min": [
        -3.6983470916748047,
        3.5989089012145996,
        -1.6711870431900024
      ],
      "type": "VEC3"
    },
    {
      "bufferView": 2,
      "byteOffset": 2216772,
      "componentType": 5126,
      "count": 16889,
      "max": [
        0.9999964237213135,
        1.0,
        1.0
      ],
      "min": [
        -0.9996799826622009,
        -1.0,
        -1.0
      ],
      "type": "VEC3"
    },
    {
      "bufferView": 1,
      "byteOffset": 671368,
      "componentType": 5126,
      "count": 16889,
      "max": [
        2.968518018722534,
        1.0590150356292725
      ],
      "min": [
        -2.015350103378296,
        -0.08410298824310303
      ],
      "type": "VEC2"
    },
    {
      "bufferView": 0,
      "byteOffset": 1155600,
      "componentType": 5125,
      "count": 57549,
      "type": "SCALAR"
    },
    {
      "bufferView": 2,
      "byteOffset": 2419440,
      "componentType": 5126,
      "count": 308,
      "max": [
        -3.23329496383667,
        3.6425609588623047,
        -1.307765007019043
      ],
      "min": [
        -3.3838839530944824,
        3.6026480197906494,
        -1.4241399765014648
      ],
      "type": "VEC3"
    },
    {
      "bufferView": 2,
      "byteOffset": 2423136,
      "componentType": 5126,
      "count": 308,
      "max": [
        0.2577996253967285,
        0.9662797451019287,
        0.40671417117118835
      ],
      "min": [
        -0.9662482142448425,
        -0.9676459431648254,
        -0.40671417117118835
      ],
      "type": "VEC3"
    },
    {
      "bufferView": 1,
      "byteOffset": 806480,
      "componentType": 5126,
      "count": 308,
      "max": [
        0.8671500086784363,
        0.5375170111656189
      ],
      "min": [
        0.5126209855079651,
        0.2695469856262207
      ],
      "type": "VEC2"
    },
    {
      "bufferView": 0,
      "byteOffset": 1385796,
      "componentType": 5125,
      "count": 543,
      "type": "SCALAR"
    },
    {
      "bufferView": 2,
      "byteOffset": 2426832,
      "componentType": 5126,
      "count": 10,
      "max": [
        -3.185415029525757,
        3.6553258895874023,
        -1.3559160232543945
      ],
      "min": [
        -3.186469078063965,
        3.6550450325012207,
        -1.4241390228271484
      ],
      "type": "VEC3"
    },
    {
      "bufferView": 2,
      "byteOffset": 2426952,
      "componentType": 5126,
      "count": 10,
      "max": [
        0.2577062249183655,
        -0.9662232995033264,
        -0.0
      ],
      "min": [
        0.2574012279510498,
        -0.9663046002388,
        -0.0
      ],
      "type": "VEC3"
    },
    {
      "bufferView": 1,
      "byteOffset": 808944,
      "componentType": 5126,
      "count": 10,
      "max": [
        0.46612900495529175,
        0.9139360189437866
      ],
      "min": [
        0.4558649957180023,
        0.06351101398468018
      ],
      "type": "VEC2"
    },
    {
      "bufferView": 0,
      "byteOffset": 1387968,
      "componentType": 5125,
      "count": 18,
      "type": "SCALAR"
    },
    {
      "bufferView": 2,
      "byteOffset": 2427072,
      "componentType": 5126,
      "count": 2563,
      "max": [
        -3.1110100746154785,
        4.005341053009033,
        -1.3132050037384033
      ],
      "min": [
        -3.4534289836883545,
        3.6275880336761475,
        -1.994832992553711
      ],
      "type": "VEC3"
    },
    {
      "bufferView": 2,
      "byteOffset": 2457828,
      "componentType": 5126,
      "count": 2563,
      "max": [
        0.9985626339912415,
        0.9985626339912415,
        1.0
      ],
      "min": [
        -0.9985626339912415,
        -0.9985626339912415,
        -1.0
      ],
      "type": "VEC3"
    },
    {
      "bufferView": 1,
      "byteOffset": 809024,
      "componentType": 5126,
      "count": 2563,
      "max": [
        1.0,
        1.0
      ],
      "min": [
        0.0,
        0.0
      ],
      "type": "VEC2"
    },
    {
      "bufferView": 0,
      "byteOffset": 1388040,
      "componentType": 5125,
      "count": 9720,
      "type": "SCALAR"
    },
    {
      "bufferView": 2,
      "byteOffset": 2488584,
      "componentType": 5126,
      "count": 24,
      "max": [
        -3.1530559062957764,
        3.7028839588165283,
        -1.4259439706802368
      ],
      "min": [
        -3.2456750869750977,
        3.6558620929718018,
        -1.5263500213623047
      ],
      "type": "VEC3"
    },
    {
      "bufferView": 2,
      "byteOffset": 2488872,
      "componentType": 5126,
      "count": 24,
      "max": [
        0.9662482142448425,
        0.9386099576950073,
        0.9714059829711914
      ],
      "min": [
        -0.9662232995033264,
        -0.9386334419250488,
        -0.9714059829711914
      ],
      "type": "VEC3"
    },
    {
      "bufferView": 1,
      "byteOffset": 829528,
      "componentType": 5126,
      "count": 24,
      "max": [
        1.0,
        1.0
      ],
      "min": [
        0.0,
        0.0
      ],
      "type": "VEC2"
    },
    {
      "bufferView": 0,
      "byteOffset": 1426920,
      "componentType": 5125,
      "count": 36,
      "type": "SCALAR"
    },
    {
      "bufferView": 2,
      "byteOffset": 2489160,
      "componentType": 5126,
      "count": 2710,
      "max": [
        -2.9945859909057617,
        4.181577205657959,
        -1.2321640253067017
      ],
      "min": [
        -3.6004509925842285,
        3.6015539169311523,
        -1.2843600511550903
      ],
      "type": "VEC3"
    },
    {
      "bufferView": 2,
      "byteOffset": 2521680,
      "componentType": 5126,
      "count": 2710,
      "max": [
        0.9990186095237732,
        0.9570897221565247,
        1.0
      ],
      "min": [
        -1.0,
        -0.9666425585746765,
        -0.9996640086174011
      ],
      "type": "VEC3"
    },
    {
      "bufferView": 1,
      "byteOffset": 829720,
      "componentType": 5126,
      "count": 2710,
      "max": [
        0.875,
        1.0
      ],
      "min": [
        0.125,
        0.0
      ],
      "type": "VEC2"
    },
    {
      "bufferView": 0,
      "byteOffset": 1427064,
      "componentType": 5125,
      "count": 6954,
      "type": "SCALAR"
    },
    {
      "bufferView": 2,
      "byteOffset": 2554200,
      "componentType": 5126,
      "count": 39537,
      "max": [
        -3.063730001449585,
        3.842134952545166,
        -1.2425930500030518
      ],
      "min": [
        -3.4705140590667725,
        3.611754894256592,
        -1.9401639699935913
      ],
      "type": "VEC3"
    },
    {
      "bufferView": 2,
      "byteOffset": 3028644,
      "componentType": 5126,
      "count": 39537,
      "max": [
        0.9995468854904175,
        0.9999924898147583,
        0.9999998807907104
      ],
      "min": [
        -0.9982401132583618,
        -0.9999924898147583,
        -0.9999998807907104
      ],
      "type": "VEC3"
    },
    {
      "bufferView": 1,
      "byteOffset": 851400,
      "componentType": 5126,
      "count": 39537,
      "max": [
        1.0,
        1.0
      ],
      "min": [
        0.0,
        0.0
      ],
      "type": "VEC2"
    },
    {
      "bufferView": 0,
      "byteOffset": 1454880,
      "componentType": 5125,
      "count": 152928,
      "type": "SCALAR"
    },
    {
      "bufferView": 2,
      "byteOffset": 3503088,
      "componentType": 5126,
      "count": 38921,
      "max": [
        -3.0682969093322754,
        3.8240599632263184,
        -1.862663984298706
      ],
      "min": [
        -3.4586050510406494,
        3.718471050262451,
        -1.9317950010299683
      ],
      "type": "VEC3"
    },
    {
      "bufferView": 2,
      "byteOffset": 3970140,
      "componentType": 5126,
      "count": 38921,
      "max": [
        0.9980009198188782,
        0.9999819993972778,
        1.0
      ],
      "min": [
        -0.9980009198188782,
        -0.9999819993972778,
        -1.0
      ],
      "type": "VEC3"
    },
    {
      "bufferView": 1,
      "byteOffset": 1167696,
      "componentType": 5126,
      "count": 38921,
      "max": [
        1.0,
        1.0
      ],
      "min": [
        0.0,
        0.0
      ],
      "type": "VEC2"
    },
    {
      "bufferView": 0,
      "byteOffset": 2066592,
      "componentType": 5125,
      "count": 149760,
      "type": "SCALAR"
    },
    {
      "bufferView": 2,
      "byteOffset": 4437192,
      "componentType": 5126,
      "count": 5535,
      "max": [
        -3.0711519718170166,
        3.8327300548553467,
        -1.8628859519958496
      ],
      "min": [
        -3.460659980773926,
        3.728214979171753,
        -1.9310359954833984
      ],
      "type": "VEC3"
    },
    {
      "bufferView": 2,
      "byteOffset": 4503612,
      "componentType": 5126,
      "count": 5535,
      "max": [
        0.9662548303604126,
        0.9994252324104309,
        1.0
      ],
      "min": [
        -0.9662548303604126,
        -0.9994252324104309,
        -1.0
      ],
      "type": "VEC3"
    },
    {
      "bufferView": 1,
      "byteOffset": 1479064,
      "componentType": 5126,
      "count": 5535,
      "max": [
        0.65625,
        1.0
      ],
      "min": [
        0.34375,
        0.0
      ],
      "type": "VEC2"
    },
    {
      "bufferView": 0,
      "byteOffset": 2665632,
      "componentType": 5125,
      "count": 19200,
      "type": "SCALAR"
    },
    {
      "bufferView": 2,
      "byteOffset": 4570032,
      "componentType": 5126,
      "count": 210,
      "max": [
        -2.9012610912323,
        4.054312229156494,
        -1.3676069974899292
      ],
      "min": [
        -3.1353259086608887,
        3.8237431049346924,
        -1.5340059995651245
      ],
      "type": "VEC3"
    },
    {
      "bufferView": 2,
      "byteOffset": 4572552,
      "componentType": 5126,
      "count": 210,
      "max": [
        0.9245797395706177,
        0.6455122232437134,
        0.9977265000343323
      ],
      "min": [
        -0.5217897295951843,
        -0.998552143573761,
        -0.9006218314170837
      ],
      "type": "VEC3"
    },
    {
      "bufferView": 1,
      "byteOffset": 1523344,
      "componentType": 5126,
      "count": 210,
      "max": [
        1.3402860164642334,
        0.9720889925956726
      ],
      "min": [
        -0.6761599779129028,
        0.04712498188018799
      ],
      "type": "VEC2"
    },
    {
      "bufferView": 0,
      "byteOffset": 2742432,
      "componentType": 5125,
      "count": 516,
      "type": "SCALAR"
    },
    {
      "bufferView": 2,
      "byteOffset": 4575072,
      "componentType": 5126,
      "count": 1204,
      "max": [
        -2.8889501094818115,
        4.061878204345703,
        -1.3332489728927612
      ],
      "min": [
        -3.091434955596924,
        3.8111228942871094,
        -1.6259440183639526
      ],
      "type": "VEC3"
    },
    {
      "bufferView": 2,
      "byteOffset": 4589520,
      "componentType": 5126,
      "count": 1204,
      "max": [
        0.9552345275878906,
        0.9967111945152283,
        0.9935644865036011
      ],
      "min": [
        -0.738392174243927,
        -0.9941893219947815,
        -0.9658767580986023
      ],
      "type": "VEC3"
    },
    {
      "bufferView": 1,
      "byteOffset": 1525024,
      "componentType": 5126,
      "count": 1204,
      "max": [
        1.3402860164642334,
        0.9703900218009949
      ],
      "min": [
        -0.5733159780502319,
        -0.08410298824310303
      ],
      "type": "VEC2"
    },
    {
      "bufferView": 0,
      "byteOffset": 2744496,
      "componentType": 5125,
      "count": 4278,
      "type": "SCALAR"
    },
    {
      "bufferView": 2,
      "byteOffset": 4603968,
      "componentType": 5126,
      "count": 956,
      "max": [
        -3.5126891136169434,
        3.9099369049072266,
        -1.3408069610595703
      ],
      "min": [
        -3.687424898147583,
        3.6707990169525146,
        -1.5883419513702393
      ],
      "type": "VEC3"
    },
    {
      "bufferView": 2,
      "byteOffset": 4615440,
      "componentType": 5126,
      "count": 956,
      "max": [
        0.7049186825752258,
        0.9803399443626404,
        0.9755676984786987
      ],
      "min": [
        -0.9677253365516663,
        -0.9993788003921509,
        -0.9442577362060547
      ],
      "type": "VEC3"
    },
    {
      "bufferView": 1,
      "byteOffset": 1534656,
      "componentType": 5126,
      "count": 956,
      "max": [
        3.583530902862549,
        0.655318021774292
      ],
      "min": [
        -2.4776999950408936,
        0.24931997060775757
      ],
      "type": "VEC2"
    },
    {
      "bufferView": 0,
      "byteOffset": 2761608,
      "componentType": 5125,
      "count": 3144,
      "type": "SCALAR"
    },
    {
      "bufferView": 2,
      "byteOffset": 4626912,
      "componentType": 5126,
      "count": 8160,
      "max": [
        -3.0711519718170166,
        4.0300822257995605,
        -1.7014939785003662
      ],
      "min": [
        -3.468899965286255,
        3.6817140579223633,
        -1.9782160520553589
      ],
      "type": "VEC3"
    },
    {
      "bufferView": 2,
      "byteOffset": 4724832,
      "componentType": 5126,
      "count": 8160,
      "max": [
        0.9951573610305786,
        0.9994252324104309,
        1.0
      ],
      "min": [
        -0.9988327026367188,
        -0.9994252324104309,
        -1.0
      ],
      "type": "VEC3"
    },
    {
      "bufferView": 1,
      "byteOffset": 1542304,
      "componentType": 5126,
      "count": 8160,
      "max": [
        1.0,
        1.0
      ],
      "min": [
        0.0,
        0.0
      ],
      "type": "VEC2"
    },
    {
      "bufferView": 0,
      "byteOffset": 2774184,
      "componentType": 5125,
      "count": 27192,
      "type": "SCALAR"
    },
    {
      "bufferView": 2,
      "byteOffset": 4822752,
      "componentType": 5126,
      "count": 39383,
      "max": [
        -3.063730001449585,
        3.842134952545166,
        -1.8540469408035278
      ],
      "min": [
        -3.4705140590667725,
        3.718492031097412,
        -1.9401639699935913
      ],
      "type": "VEC3"
    },
    {
      "bufferView": 2,
      "byteOffset": 5295348,
      "componentType": 5126,
      "count": 39383,
      "max": [
        0.9995468854904175,
        0.9999924898147583,
        0.9999998807907104
      ],
      "min": [
        -0.9982401132583618,
        -0.9999924898147583,
        -0.9999998807907104
      ],
      "type": "VEC3"
    },
    {
      "bufferView": 1,
      "byteOffset": 1607584,
      "componentType": 5126,
      "count": 39383,
      "max": [
        1.0,
        1.0
      ],
      "min": [
        0.0,
        0.0
      ],
      "type": "VEC2"
    },
    {
      "bufferView": 0,
      "byteOffset": 2882952,
      "componentType": 5125,
      "count": 152640,
      "type": "SCALAR"
    },
    {
      "bufferView": 2,
      "byteOffset": 5767944,
      "componentType": 5126,
      "count": 38921,
      "max": [
        -3.0682969093322754,
        3.8240599632263184,
        -1.862663984298706
      ],
      "min": [
        -3.4586050510406494,
        3.718471050262451,
        -1.9317950010299683
      ],
      "type": "VEC3"
    },
    {
      "bufferView": 2,
      "byteOffset": 6234996,
      "componentType": 5126,
      "count": 38921,
      "max": [
        0.9980009198188782,
        0.9999819993972778,
        1.0
      ],
      "min": [
        -0.9980009198188782,
        -0.9999819993972778,
        -1.0
      ],
      "type": "VEC3"
    },
    {
      "bufferView": 1,
      "byteOffset": 1922648,
      "componentType": 5126,
      "count": 38921,
      "max": [
        1.0,
        1.0
      ],
      "min": [
        0.0,
        0.0
      ],
      "type": "VEC2"
    },
    {
      "bufferView": 0,
      "byteOffset": 3493512,
      "componentType": 5125,
      "count": 149760,
      "type": "SCALAR"
    }
  ],
  "asset": {
    "extras": {
      "author": "Space Explorers Academy (https://sketchfab.com/SpaceExplorersAcademy)",
      "license": "CC-BY-NC-SA-4.0 (http://creativecommons.org/licenses/by-nc-sa/4.0/)",
      "source": "https://sketchfab.com/3d-models/nasa-emu-db22449d24c84a349b3b545aed4d18e8",
      "title": "NASA EMU"
    },
    "generator": "Sketchfab-15.50.0",
    "version": "2.0"
  },
  "bufferViews": [
    {
      "buffer": 0,
      "byteLength": 4092552,
      "name": "floatBufferViews",
      "target": 34963
    },
    {
      "buffer": 0,
      "byteLength": 2234016,
      "byteOffset": 4092552,
      "byteStride": 8,
      "name": "floatBufferViews",
      "target": 34962
    },
    {
      "buffer": 0,
      "byteLength": 6702048,
      "byteOffset": 6326568,
      "byteStride": 12,
      "name": "floatBufferViews",
      "target": 34962
    }
  ],
  "buffers": [
    {
      "byteLength": 13028616,
      "uri": "scene.bin"
    }
  ],
  "extensionsUsed": [
    "KHR_materials_specular",
    "KHR_materials_transmission"
  ],
  "images": [
    {
      "uri": "textures/EMUemusuit21_emusuit5_jetpack2SG_baseColor.png"
    },
    {
      "uri": "textures/EMUemusuit21_lambert7SG_baseColor.png"
    },
    {
      "uri": "textures/EMUemusuit21_lambert8SG_baseColor.png"
    }
  ],
  "materials": [
    {
      "doubleSided": true,
      "extensions": {
        "KHR_materials_specular": {
          "specularColorFactor": [
            1.0,
            1.0,
            1.0
          ],
          "specularFactor": 1.0
        }
      },
      "name": "EMUemusuit21_emusuit5_lambert2SG",
      "pbrMetallicRoughness": {
        "metallicFactor": 0.0
      }
    },
    {
      "alphaMode": "BLEND",
      "doubleSided": true,
      "extensions": {
        "KHR_materials_transmission": {
          "transmissionFactor": 1.0
        }
      },
      "name": "EMUemusuit21_blinn2SG",
      "pbrMetallicRoughness": {
        "baseColorFactor": [
          0.6,
          0.6,
          0.6,
          0.25
        ],
        "metallicFactor": 0.0,
        "roughnessFactor": 0.992254
      }
    },
    {
      "doubleSided": true,
      "extensions": {
        "KHR_materials_specular": {
          "specularColorFactor": [
            1.0,
            1.0,
            1.0
          ],
          "specularFactor": 1.0
        }
      },
      "name": "EMUemusuit21_lambert2SG",
      "pbrMetallicRoughness": {
        "metallicFactor": 0.0
      }
    },
    {
      "doubleSided": true,
      "extensions": {
        "KHR_materials_specular": {
          "specularColorFactor": [
            1.0,
            1.0,
            1.0
          ],
          "specularFactor": 1.0
        }
      },
      "name": "EMUemusuit21_jetpack2SG",
      "pbrMetallicRoughness": {
        "baseColorFactor": [
          0.7579697625090449,
          0.7504369786895331,
          0.7429015636077185,
          1.0
        ],
        "metallicFactor": 0.0
      }
    },
    {
      "alphaMode": "BLEND",
      "doubleSided": true,
      "extensions": {
        "KHR_materials_specular": {
          "specularColorFactor": [
            1.0,
            1.0,
            1.0
          ],
          "specularFactor": 1.0
        }
      },
      "name": "EMUinitialShadingGroup",
      "pbrMetallicRoughness": {
        "baseColorFactor": [
          0.5,
          0.5,
          0.5,
          0.0
        ],
        "metallicFactor": 0.0
      }
    },
    {
      "doubleSided": true,
      "extensions": {
        "KHR_materials_specular": {
          "specularColorFactor": [
            1.0,
            1.0,
            1.0
          ],
          "specularFactor": 1.0
        }
      },
      "name": "EMUemusuit21_lambert5SG",
      "pbrMetallicRoughness": {
        "baseColorFactor": [
          0.7605245046752922,
          0.7529422167760779,
          0.7454042095403872,
          1.0
        ],
        "metallicFactor": 0.0
      }
    },
    {
      "alphaMode": "BLEND",
      "doubleSided": true,
      "extensions": {
        "KHR_materials_specular": {
          "specularColorFactor": [
            1.0,
            1.0,
            1.0
          ],
          "specularFactor": 1.0
        },
        "KHR_materials_transmission": {
          "transmissionFactor": 1.0
        }
      },
      "name": "EMUemusuit21_emusuit5_jetpack2SG",
      "pbrMetallicRoughness": {
        "baseColorFactor": [
          1.0,
          1.0,
          1.0,
          0.25
        ],
        "baseColorTexture": {
          "index": 0
        },
        "metallicFactor": 0.0
      }
    },
    {
      "alphaMode": "BLEND",
      "doubleSided": true,
      "extensions": {
        "KHR_materials_transmission": {
          "transmissionFactor": 1.0
        }
      },
      "name": "EMUemusuit21_emusuit5_blinn2SG",
      "pbrMetallicRoughness": {
        "baseColorFactor": [
          0.6,
          0.6,
          0.6,
          0.25
        ],
        "metallicFactor": 0.0,
        "roughnessFactor": 0.992254
      }
    },
    {
      "alphaMode": "BLEND",
      "doubleSided": true,
      "extensions": {
        "KHR_materials_specular": {
          "specularColorFactor": [
            1.0,
            1.0,
            1.0
          ],
          "specularFactor": 1.0
        },
        "KHR_materials_transmission": {
          "transmissionFactor": 1.0
        }
      },
      "name": "EMUemusuit21_emusuit5_lambert5SG",
      "pbrMetallicRoughness": {
        "baseColorFactor": [
          0.41,
          0.3,
          0.27,
          0.25
        ],
        "metallicFactor": 0.0
      }
    },
    {
      "alphaMode": "BLEND",
      "doubleSided": true,
      "extensions": {
        "KHR_materials_specular": {
          "specularColorFactor": [
            1.0,
            1.0,
            1.0
          ],
          "specularFactor": 1.0
        },
        "KHR_materials_transmission": {
          "transmissionFactor": 1.0
        }
      },
      "name": "EMUemusuit21_lambert4SG",
      "pbrMetallicRoughness": {
        "baseColorFactor": [
          0.94,
          0.14,
          0.16,
          0.25
        ],
        "metallicFactor": 0.0
      }
    },
    {
      "doubleSided": true,
      "extensions": {
        "KHR_materials_specular": {
          "specularColorFactor": [
            1.0,
            1.0,
            1.0
          ],
          "specularFactor": 1.0
        }
      },
      "name": "EMUemusuit21_emusuit4_justbody_lambert2SG",
      "pbrMetallicRoughness": {
        "metallicFactor": 0.0
      }
    },
    {
      "alphaMode": "BLEND",
      "doubleSided": true,
      "extensions": {
        "KHR_materials_specular": {
          "specularColorFactor": [
            1.0,
            1.0,
            1.0
          ],
          "specularFactor": 1.0
        },
        "KHR_materials_transmission": {
          "transmissionFactor": 1.0
        }
      },
      "name": "EMUemusuit21_lambert7SG",
      "pbrMetallicRoughness": {
        "baseColorFactor": [
          1.0,
          1.0,
          1.0,
          0.25
        ],
        "baseColorTexture": {
          "index": 1
        },
        "metallicFactor": 0.0
      }
    },
    {
      "alphaMode": "BLEND",
      "doubleSided": true,
      "extensions": {
        "KHR_materials_specular": {
          "specularColorFactor": [
            1.0,
            1.0,
            1.0
          ],
          "specularFactor": 1.0
        },
        "KHR_materials_transmission": {
          "transmissionFactor": 1.0
        }
      },
      "name": "EMUemusuit21_lambert11SG",
      "pbrMetallicRoughness": {
        "baseColorFactor": [
          0.67,
          0.45,
          0.38,
          0.25
        ],
        "metallicFactor": 0.0
      }
    },
    {
      "doubleSided": true,
      "extensions": {
        "KHR_materials_specular": {
          "specularColorFactor": [
            1.0,
            1.0,
            1.0
          ],
          "specularFactor": 1.0
        }
      },
      "name": "EMUemusuit21_emusuit4_justbody_blinn3SG",
      "pbrMetallicRoughness": {
        "baseColorFactor": [
          0.2307903924940071,
          0.1709899017491034,
          0.04716463178649629,
          1.0
        ],
        "metallicFactor": 0.0,
        "roughnessFactor": 0.0
      }
    },
    {
      "alphaMode": "BLEND",
      "doubleSided": true,
      "extensions": {
        "KHR_materials_specular": {
          "specularColorFactor": [
            1.0,
            1.0,
            1.0
          ],
          "specularFactor": 1.0
        },
        "KHR_materials_transmission": {
          "transmissionFactor": 1.0
        }
      },
      "name": "EMUemusuit21_lambert10SG",
      "pbrMetallicRoughness": {
        "baseColorFactor": [
          0.92,
          0.92,
          0.92,
          0.25
        ],
        "metallicFactor": 0.0
      }
    },
    {
      "alphaMode": "BLEND",
      "doubleSided": true,
      "extensions": {
        "KHR_materials_transmission": {
          "transmissionFactor": 1.0
        }
      },
      "name": "EMUemusuit21_blinn12SG",
      "pbrMetallicRoughness": {
        "baseColorFactor": [
          0.77,
          0.36,
          0.14,
          0.25
        ],
        "metallicFactor": 0.0,
        "roughnessFactor": 0.992254
      }
    },
    {
      "doubleSided": true,
      "name": "EMUemusuit21_blinn3SG",
      "pbrMetallicRoughness": {
        "baseColorFactor": [
          0.5,
          0.38000000000000006,
          0.14000000000000007,
          1.0
        ],
        "metallicFactor": 0.0,
        "roughnessFactor": 0.992254
      }
    },
    {
      "alphaMode": "BLEND",
      "doubleSided": true,
      "extensions": {
        "KHR_materials_transmission": {
          "transmissionFactor": 0.32000000000000006
        }
      },
      "name": "EMUemusuit21_blinn1SG",
      "pbrMetallicRoughness": {
        "baseColorFactor": [
          0.69,
          0.42,
          0.22,
          0.6799999999999999
        ],
        "metallicFactor": 0.0,
        "roughnessFactor": 0.992254
      }
    },
    {
      "alphaMode": "BLEND",
      "doubleSided": true,
      "extensions": {
        "KHR_materials_specular": {
          "specularColorFactor": [
            1.0,
            1.0,
            1.0
          ],
          "specularFactor": 1.0
        },
        "KHR_materials_transmission": {
          "transmissionFactor": 1.0
        }
      },
      "name": "EMUemusuit21_lambert3SG",
      "pbrMetallicRoughness": {
        "baseColorFactor": [
          0.92,
          0.72,
          0.66,
          0.25
        ],
        "metallicFactor": 0.0
      }
    },
    {
      "alphaMode": "BLEND",
      "doubleSided": true,
      "extensions": {
        "KHR_materials_specular": {
          "specularColorFactor": [
            1.0,
            1.0,
            1.0
          ],
          "specularFactor": 1.0
        },
        "KHR_materials_transmission": {
          "transmissionFactor": 1.0
        }
      },
      "name": "EMUemusuit21_body_lambert2SG",
      "pbrMetallicRoughness": {
        "baseColorFactor": [
          0.82,
          0.83,
          0.9,
          0.25
        ],
        "metallicFactor": 0.0
      }
    },
    {
      "doubleSided": true,
      "extensions": {
        "KHR_materials_specular": {
          "specularColorFactor": [
            1.0,
            1.0,
            1.0
          ],
          "specularFactor": 1.0
        }
      },
      "name": "EMUemusuit21_lambert8SG",
      "pbrMetallicRoughness": {
        "baseColorTexture": {
          "index": 2
        },
        "metallicFactor": 0.0
      }
    },
    {
      "doubleSided": true,
      "extensions": {
        "KHR_materials_specular": {
          "specularColorFactor": [
            1.0,
            1.0,
            1.0
          ],
          "specularFactor": 1.0
        }
      },
      "name": "EMUemusuit21_lambert9SG",
      "pbrMetallicRoughness": {
        "baseColorTexture": {
          "index": 0
        },
        "metallicFactor": 0.0
      }
    },
    {
      "alphaMode": "BLEND",
      "doubleSided": true,
      "extensions": {
        "KHR_materials_specular": {
          "specularColorFactor": [
            1.0,
            1.0,
            1.0
          ],
          "specularFactor": 1.0
        },
        "KHR_materials_transmission": {
          "transmissionFactor": 1.0
        }
      },
      "name": "EMUemusuit21_emusuit5_lambert3SG",
      "pbrMetallicRoughness": {
        "baseColorFactor": [
          0.75,
          0.26,
          0.11,
          0.25
        ],
        "metallicFactor": 0.0
      }
    },
    {
      "alphaMode": "BLEND",
      "doubleSided": true,
      "extensions": {
        "KHR_materials_transmission": {
          "transmissionFactor": 1.0
        }
      },
      "name": "EMUemusuit21_emusuit5_blinn3SG",
      "pbrMetallicRoughness": {
        "baseColorFactor": [
          0.5,
          0.38,
          0.14,
          0.25
        ],
        "metallicFactor": 0.0,
        "roughnessFactor": 0.992254
      }
    },
    {
      "alphaMode": "BLEND",
      "doubleSided": true,
      "extensions": {
        "KHR_materials_transmission": {
          "transmissionFactor": 0.32000000000000006
        }
      },
      "name": "EMUemusuit21_emusuit5_blinn1SG",
      "pbrMetallicRoughness": {
        "baseColorFactor": [
          0.69,
          0.42,
          0.22,
          0.6799999999999999
        ],
        "metallicFactor": 0.0,
        "roughnessFactor": 0.992254
      }
    }
  ],
  "meshes": [
    {
      "name": "Object_0",
      "primitives": [
        {
          "attributes": {
            "NORMAL": 1,
            "POSITION": 0,
            "TEXCOORD_0": 2
          },
          "indices": 3,
          "material": 0,
          "mode": 4
        }
      ]
    },
    {
      "name": "Object_1",
      "primitives": [
        {
          "attributes": {
            "NORMAL": 5,
            "POSITION": 4,
            "TEXCOORD_0": 6
          },
          "indices": 7,
          "material": 1,
          "mode": 4
        }
      ]
    },
    {
      "name": "Object_2",
      "primitives": [
        {
          "attributes": {
            "NORMAL": 9,
            "POSITION": 8,
            "TEXCOORD_0": 10
          },
          "indices": 11,
          "material": 2,
          "mode": 4
        }
      ]
    },
    {
      "name": "Object_3",
      "primitives": [
        {
          "attributes": {
            "NORMAL": 13,
            "POSITION": 12,
            "TEXCOORD_0": 14
          },
          "indices": 15,
          "material": 3,
          "mode": 4
        }
      ]
    },
    {
      "name": "Object_4",
      "primitives": [
        {
          "attributes": {
            "NORMAL": 17,
            "POSITION": 16,
            "TEXCOORD_0": 18
          },
          "indices": 19,
          "material": 4,
          "mode": 4
        }
      ]
    },
    {
      "name": "Object_5",
      "primitives": [
        {
          "attributes": {
            "NORMAL": 21,
            "POSITION": 20,
            "TEXCOORD_0": 22
          },
          "indices": 23,
          "material": 5,
          "mode": 4
        }
      ]
    },
    {
      "name": "Object_6",
      "primitives": [
        {
          "attributes": {
            "NORMAL": 25,
            "POSITION": 24,
            "TEXCOORD_0": 26
          },
          "indices": 27,
          "material": 6,
          "mode": 4
        }
      ]
    },
    {
      "name": "Object_7",
      "primitives": [
        {
          "attributes": {
            "NORMAL": 29,
            "POSITION": 28,
            "TEXCOORD_0": 30
          },
          "indices": 31,
          "material": 7,
          "mode": 4
        }
      ]
    },
    {
      "name": "Object_8",
      "primitives": [
        {
          "attributes": {
            "NORMAL": 33,
            "POSITION": 32,
            "TEXCOORD_0": 34
          },
          "indices": 35,
          "material": 8,
          "mode": 4
        }
      ]
    },
    {
      "name": "Object_9",
      "primitives": [
        {
          "attributes": {
            "NORMAL": 37,
            "POSITION": 36,
            "TEXCOORD_0": 38
          },
          "indices": 39,
          "material": 9,
          "mode": 4
        }
      ]
    },
    {
      "name": "Object_10",
      "primitives": [
        {
          "attributes": {
            "NORMAL": 41,
            "POSITION": 40,
            "TEXCOORD_0": 42
          },
          "indices": 43,
          "material": 10,
          "mode": 4
        }
      ]
    },
    {
      "name": "Object_11",
      "primitives": [
        {
          "attributes": {
            "NORMAL": 45,
            "POSITION": 44,
            "TEXCOORD_0": 46
          },
          "indices": 47,
          "material": 11,
          "mode": 4
        }
      ]
    },
    {
      "name": "Object_12",
      "primitives": [
        {
          "attributes": {
            "NORMAL": 49,
            "POSITION": 48,
            "TEXCOORD_0": 50
          },
          "indices": 51,
          "material": 12,
          "mode": 4
        }
      ]
    },
    {
      "name": "Object_13",
      "primitives": [
        {
          "attributes": {
            "NORMAL": 53,
            "POSITION": 52,
            "TEXCOORD_0": 54
          },
          "indices": 55,
          "material": 13,
          "mode": 4
        }
      ]
    },
    {
      "name": "Object_14",
      "primitives": [
        {
          "attributes": {
            "NORMAL": 57,
            "POSITION": 56,
            "TEXCOORD_0": 58
          },
          "indices": 59,
          "material": 14,
          "mode": 4
        }
      ]
    },
    {
      "name": "Object_15",
      "primitives": [
        {
          "attributes": {
            "NORMAL": 61,
            "POSITION": 60,
            "TEXCOORD_0": 62
          },
          "indices": 63,
          "material": 15,
          "mode": 4
        }
      ]
    },
    {
      "name": "Object_16",
      "primitives": [
        {
          "attributes": {
            "NORMAL": 65,
            "POSITION": 64,
            "TEXCOORD_0": 66
          },
          "indices": 67,
          "material": 16,
          "mode": 4
        }
      ]
    },
    {
      "name": "Object_17",
      "primitives": [
        {
          "attributes": {
            "NORMAL": 69,
            "POSITION": 68,
            "TEXCOORD_0": 70
          },
          "indices": 71,
          "material": 17,
          "mode": 4
        }
      ]
    },
    {
      "name": "Object_18",
      "primitives": [
        {
          "attributes": {
            "NORMAL": 73,
            "POSITION": 72,
            "TEXCOORD_0": 74
          },
          "indices": 75,
          "material": 18,
          "mode": 4
        }
      ]
    },
    {
      "name": "Object_19",
      "primitives": [
        {
          "attributes": {
            "NORMAL": 77,
            "POSITION": 76,
            "TEXCOORD_0": 78
          },
          "indices": 79,
          "material": 19,
          "mode": 4
        }
      ]
    },
    {
      "name": "Object_20",
      "primitives": [
        {
          "attributes": {
            "NORMAL": 81,
            "POSITION": 80,
            "TEXCOORD_0": 82
          },
          "indices": 83,
          "material": 20,
          "mode": 4
        }
      ]
    },
    {
      "name": "Object_21",
      "primitives": [
        {
          "attributes": {
            "NORMAL": 85,
            "POSITION": 84,
            "TEXCOORD_0": 86
          },
          "indices": 87,
          "material": 21,
          "mode": 4
        }
      ]
    },
    {
      "name": "Object_22",
      "primitives": [
        {
          "attributes": {
            "NORMAL": 89,
            "POSITION": 88,
            "TEXCOORD_0": 90
          },
          "indices": 91,
          "material": 22,
          "mode": 4
        }
      ]
    },
    {
      "name": "Object_23",
      "primitives": [
        {
          "attributes": {
            "NORMAL": 93,
            "POSITION": 92,
            "TEXCOORD_0": 94
          },
          "indices": 95,
          "material": 23,
          "mode": 4
        }
      ]
    },
    {
      "name": "Object_24",
      "primitives": [
        {
          "attributes": {
            "NORMAL": 97,
            "POSITION": 96,
            "TEXCOORD_0": 98
          },
          "indices": 99,
          "material": 24,
          "mode": 4
        }
      ]
    }
  ],
  "nodes": [
    {
      "children": [
        1
      ],
      "matrix": [
        1.0,
        0.0,
        0.0,
        0.0,
        0.0,
        2.220446049250313e-16,
        -1.0,
        0.0,
        0.0,
        1.0,
        2.220446049250313e-16,
        0.0,
        0.0,
        0.0,
        0.0,
        1.0
      ],
      "name": "Sketchfab_model"
    },
    {
      "children": [
        2
      ],
      "name": "root"
    },
    {
      "children": [
        3
      ],
      "matrix": [
        1.0,
        0.0,
        0.0,
        0.0,
        0.0,
        2.220446049250313e-16,
        1.0,
        0.0,
        0.0,
        -1.0,
        2.220446049250313e-16,
        0.0,
        0.0,
        0.0,
        0.0,
        1.0
      ],
      "name": "GLTF_SceneRootNode"
    },
    {
      "children": [
        4,
        5,
        6,
        7,
        8,
        9,
        10,
        11,
        12,
        13,
        14,
        15,
        16,
        17,
        18,
        19,
        20,
        21,
        22,
        23,
        24,
        25,
        26,
        27,
        28
      ],
      "matrix": [
        2.0,
        0.0,
        0.0,
        0.0,
        0.0,
        0.0,
        2.0,
        0.0,
        0.0,
        -2.0,
        0.0,
        0.0,
        6.7191853523254395,
        -1.605685830116272,
        -7.79102897644043,
        1.0
      ],
      "name": "EMU_0"
    },
    {
      "mesh": 0,
      "name": "Object_4"
    },
    {
      "mesh": 1,
      "name": "Object_5"
    },
    {
      "mesh": 2,
      "name": "Object_6"
    },
    {
      "mesh": 3,
      "name": "Object_7"
    },
    {
      "mesh": 4,
      "name": "Object_8"
    },
    {
      "mesh": 5,
      "name": "Object_9"
    },
    {
      "mesh": 6,
      "name": "Object_10"
    },
    {
      "mesh": 7,
      "name": "Object_11"
    },
    {
      "mesh": 8,
      "name": "Object_12"
    },
    {
      "mesh": 9,
      "name": "Object_13"
    },
    {
      "mesh": 10,
      "name": "Object_14"
    },
    {
      "mesh": 11,
      "name": "Object_15"
    },
    {
      "mesh": 12,
      "name": "Object_16"
    },
    {
      "mesh": 13,
      "name": "Object_17"
    },
    {
      "mesh": 14,
      "name": "Object_18"
    },
    {
      "mesh": 15,
      "name": "Object_19"
    },
    {
      "mesh": 16,
      "name": "Object_20"
    },
    {
      "mesh": 17,
      "name": "Object_21"
    },
    {
      "mesh": 18,
      "name": "Object_22"
    },
    {
      "mesh": 19,
      "name": "Object_23"
    },
    {
      "mesh": 20,
      "name": "Object_24"
    },
    {
      "mesh": 21,
      "name": "Object_25"
    },
    {
      "mesh": 22,
      "name": "Object_26"
    },
    {
      "mesh": 23,
      "name": "Object_27"
    },
    {
      "mesh": 24,
      "name": "Object_28"
    }
  ],
  "samplers": [
    {
      "magFilter": 9729,
      "minFilter": 9987,
      "wrapS": 10497,
      "wrapT": 10497
    }
  ],
  "scene": 0,
  "scenes": [
    {
      "name": "Sketchfab_Scene",
      "nodes": [
        0
      ]
    }
  ],
  "textures": [
    {
      "sampler": 0,
      "source": 0
    },
    {
      "sampler": 0,
      "source": 1
    },
    {
      "sampler": 0,
      "source": 2
    }
  ]
}
