{
  "accessors": [
    {
      "bufferView": 1,
      "componentType": 5126,
      "count": 52,
      "max": [
        0.20000000298023224,
        0.008975000120699406,
        1.3944382667541504
      ],
      "min": [
        -0.20000000298023224,
        -0.00897500105202198,
        0.19443820416927338
      ],
      "type": "VEC3"
    },
    {
      "bufferView": 1,
      "byteOffset": 624,
      "componentType": 5126,
      "count": 52,
      "max": [
        1.0,
        1.0,
        1.0
      ],
      "min": [
        -1.0,
        -1.0,
        -1.0
      ],
      "type": "VEC3"
    },
    {
      "bufferView": 0,
      "componentType": 5125,
      "count": 78,
      "type": "SCALAR"
    },
    {
      "bufferView": 1,
      "byteOffset": 1248,
      "componentType": 5126,
      "count": 4,
      "max": [
        0.17221105098724365,
        -0.00010439689503982663,
        1.3681697845458984
      ],
      "min": [
        -0.17221105098724365,
        -0.0001043990341713652,
        0.22070665657520294
      ],
      "type": "VEC3"
    },
    {
      "bufferView": 1,
      "byteOffset": 1296,
      "componentType": 5126,
      "count": 4,
      "max": [
        6.210785219451509e-09,
        -1.0,
        0.0
      ],
      "min": [
        6.210785219451509e-09,
        -1.0,
        0.0
      ],
      "type": "VEC3"
    },
    {
      "bufferView": 0,
      "byteOffset": 312,
      "componentType": 5125,
      "count": 6,
      "type": "SCALAR"
    }
  ],
  "asset": {
    "extras": {
      "author": "hate94neu (https://sketchfab.com/hate94neu)",
      "license": "CC-BY-4.0 (http://creativecommons.org/licenses/by/4.0/)",
      "source": "https://sketchfab.com/3d-models/espejo-cuerpo-entero-full-length-mirror-181c197a71534f028f8aa65646587107",
      "title": "Espejo Cuerpo Entero -  Full Length Mirror"
    },
    "generator": "Sketchfab-12.68.0",
    "version": "2.0"
  },
  "bufferViews": [
    {
      "buffer": 0,
      "byteLength": 336,
      "name": "floatBufferViews",
      "target": 34963
    },
    {
      "buffer": 0,
      "byteLength": 1344,
      "byteOffset": 336,
      "byteStride": 12,
      "name": "floatBufferViews",
      "target": 34962
    }
  ],
  "buffers": [
    {
      "byteLength": 1680,
      "uri": "scene.bin"
    }
  ],
  "materials": [
    {
      "doubleSided": true,
      "name": "Base",
      "pbrMetallicRoughness": {
        "metallicFactor": 0.553980902913772,
        "roughnessFactor": 0.42781101512558173
      }
    },
    {
      "doubleSided": true,
      "name": "Espejo",
      "pbrMetallicRoughness": {
        "baseColorFactor": [
          0.8635182962447585,
          0.8635182962447585,
          0.8635182962447585,
          1.0
        ],
        "roughnessFactor": 0.0
      }
    }
  ],
  "meshes": [
    {
      "name": "EspejoCuerpoEntero_Base_0",
      "primitives": [
        {
          "attributes": {
            "NORMAL": 1,
            "POSITION": 0
          },
          "indices": 2,
          "material": 0,
          "mode": 4
        }
      ]
    },
    {
      "name": "EspejoCuerpoEntero_Espejo_0",
      "primitives": [
        {
          "attributes": {
            "NORMAL": 4,
            "POSITION": 3
          },
          "indices": 5,
          "material": 1,
          "mode": 4
        }
      ]
    }
  ],
  "nodes": [
    {
      "children": [
        1
      ],
      "matrix": [
        0.01623995043337345,
        0.0,
        0.0,
        0.0,
        0.0,
        3.605993377980499e-18,
        -0.01623995043337345,
        0.0,
        0.0,
        0.01623995043337345,
        3.605993377980499e-18,
        0.0,
        0.0,
        0.0,
        0.0,
        1.0
      ],
      "name": "Sketchfab_model"
    },
    {
      "children": [
        2
      ],
      "matrix": [
        1.0,
        0.0,
        0.0,
        0.0,
        0.0,
        0.0,
        1.0,
        0.0,
        0.0,
        -1.0,
        0.0,
        0.0,
        0.0,
        0.0,
        0.0,
        1.0
      ],
      "name": "4d77d817aa8c484a8cad7b773a2a8cb0.fbx"
    },
    {
      "children": [
        3
      ],
      "name": "RootNode"
    },
    {
      "children": [
        4,
        5
      ],
      "matrix": [
        100.0,
        0.0,
        0.0,
        0.0,
        0.0,
        -1.629206793918314e-05,
        -99.99999999999868,
        0.0,
        0.0,
        99.99999999999868,
        -1.629206793918314e-05,
        0.0,
        0.0,
        -5.9604644775390625e-06,
        0.0,
        1.0
      ],
      "name": "EspejoCuerpoEntero"
    },
    {
      "mesh": 0,
      "name": "EspejoCuerpoEntero_Base_0"
    },
    {
      "mesh": 1,
      "name": "EspejoCuerpoEntero_Espejo_0"
    }
  ],
  "scene": 0,
  "scenes": [
    {
      "name": "Sketchfab_Scene",
      "nodes": [
        0
      ]
    }
  ]
}
